<svg width="2000" height="2000" viewBox="0 0 2000 2000" fill="none" xmlns="http://www.w3.org/2000/svg">
<g filter="url(#filter0_i_5_42)">
<circle cx="1000" cy="1000" r="1000" fill="url(#paint0_linear_5_42)"/>
</g>
<circle cx="1000" cy="1000" r="925" stroke="url(#paint1_linear_5_42)" stroke-width="150"/>
<circle cx="1000" cy="1000" r="842.5" stroke="url(#paint2_linear_5_42)" stroke-width="15"/>
<g filter="url(#filter1_d_5_42)">
<path d="M620.053 378.851L620.044 378.856L620.035 378.862C570 410.079 532.41 439.656 491.136 480.056C384.267 584.739 315.176 712.277 285.577 859.542L285.576 859.544C278.145 896.411 271.583 957.416 271.583 989.799V996.5H523.958H776.461L777.221 985.859C777.221 985.857 777.221 985.855 777.221 985.852C781.999 916.76 819.144 852.601 876.175 814.53L876.19 814.52L876.205 814.511L885.241 808.594L884.385 807.224L884.331 807.137L884.281 807.047C882.837 804.449 825.41 705.123 756.641 586.206L756.639 586.203C722.339 526.764 691.044 472.603 668.252 433.229C656.855 413.542 647.586 397.553 641.129 386.451C637.9 380.899 635.377 376.573 633.643 373.617C633.23 372.913 632.863 372.288 632.542 371.744C632.049 371.978 631.491 372.255 630.872 372.575C628.01 374.049 624.155 376.26 620.053 378.851Z" fill="url(#paint3_linear_5_42)"/>
<path d="M620.053 378.851L620.044 378.856L620.035 378.862C570 410.079 532.41 439.656 491.136 480.056C384.267 584.739 315.176 712.277 285.577 859.542L285.576 859.544C278.145 896.411 271.583 957.416 271.583 989.799V996.5H523.958H776.461L777.221 985.859C777.221 985.857 777.221 985.855 777.221 985.852C781.999 916.76 819.144 852.601 876.175 814.53L876.19 814.52L876.205 814.511L885.241 808.594L884.385 807.224L884.331 807.137L884.281 807.047C882.837 804.449 825.41 705.123 756.641 586.206L756.639 586.203C722.339 526.764 691.044 472.603 668.252 433.229C656.855 413.542 647.586 397.553 641.129 386.451C637.9 380.899 635.377 376.573 633.643 373.617C633.23 372.913 632.863 372.288 632.542 371.744C632.049 371.978 631.491 372.255 630.872 372.575C628.01 374.049 624.155 376.26 620.053 378.851Z" stroke="url(#paint4_linear_5_42)" stroke-width="8" stroke-miterlimit="2.61313" style="mix-blend-mode:luminosity"/>
<path d="M1370.44 372.286L1368.63 371.177L1362.64 381.308C1362.64 381.308 1362.64 381.309 1362.64 381.309C1358.24 388.775 1301.39 487.249 1236.3 600.127L1236.3 600.13C1212.98 640.477 1191.09 678.388 1172.53 710.53C1165.12 723.347 1158.25 735.246 1152.03 746.016C1131.46 781.626 1117.88 805.124 1115.9 808.423C1116.35 808.803 1117.01 809.311 1117.96 809.992C1119.55 811.126 1121.72 812.571 1124.67 814.523L1124.67 814.528C1181.85 852.598 1219 916.759 1223.78 985.852C1223.78 985.855 1223.78 985.857 1223.78 985.859L1224.54 996.5H1477.04H1729.42V989.799C1729.42 970.683 1726.51 933.051 1722.86 905.453C1695.89 701.944 1587.73 523.804 1418.15 403.36C1408.71 396.682 1383.14 380.022 1370.45 372.288L1370.44 372.286Z" fill="url(#paint5_linear_5_42)"/>
<path d="M1370.44 372.286L1368.63 371.177L1362.64 381.308C1362.64 381.308 1362.64 381.309 1362.64 381.309C1358.24 388.775 1301.39 487.249 1236.3 600.127L1236.3 600.13C1212.98 640.477 1191.09 678.388 1172.53 710.53C1165.12 723.347 1158.25 735.246 1152.03 746.016C1131.46 781.626 1117.88 805.124 1115.9 808.423C1116.35 808.803 1117.01 809.311 1117.96 809.992C1119.55 811.126 1121.72 812.571 1124.67 814.523L1124.67 814.528C1181.85 852.598 1219 916.759 1223.78 985.852C1223.78 985.855 1223.78 985.857 1223.78 985.859L1224.54 996.5H1477.04H1729.42V989.799C1729.42 970.683 1726.51 933.051 1722.86 905.453C1695.89 701.944 1587.73 523.804 1418.15 403.36C1408.71 396.682 1383.14 380.022 1370.45 372.288L1370.44 372.286Z" stroke="url(#paint6_linear_5_42)" stroke-width="8" stroke-miterlimit="2.61313" style="mix-blend-mode:luminosity"/>
<path d="M976.295 860.051C899.245 874.034 846.813 947.946 860.055 1023.85C870.612 1083.9 917.097 1130.39 977.148 1140.94C1053.49 1154.19 1127.39 1101.47 1140.94 1023.85C1152.76 955.931 1111.74 887.874 1045.1 865.181C1024.48 858.215 997.613 856.215 976.295 860.051Z" fill="url(#paint7_linear_5_42)"/>
<path d="M976.295 860.051C899.245 874.034 846.813 947.946 860.055 1023.85C870.612 1083.9 917.097 1130.39 977.148 1140.94C1053.49 1154.19 1127.39 1101.47 1140.94 1023.85C1152.76 955.931 1111.74 887.874 1045.1 865.181C1024.48 858.215 997.613 856.215 976.295 860.051Z" stroke="url(#paint8_linear_5_42)" stroke-width="8" stroke-miterlimit="2.61313" style="mix-blend-mode:luminosity"/>
<path d="M891.39 1197.89L891.358 1197.95L891.323 1198C887.777 1203.72 824.657 1312.94 762.322 1421.01C731.174 1475.02 700.246 1528.7 677.096 1568.95C665.521 1589.08 655.891 1605.84 649.151 1617.61C645.781 1623.5 643.136 1628.13 641.331 1631.31C640.859 1632.14 640.446 1632.87 640.094 1633.5C640.657 1633.88 641.334 1634.32 642.123 1634.81C645.236 1636.75 649.752 1639.33 655.146 1642.24C665.919 1648.06 679.985 1655.13 692.874 1661.03L692.88 1661.04C890.733 1752.02 1110.27 1752.02 1308.12 1661.04L1308.13 1661.03C1321.01 1655.13 1335.08 1648.06 1345.85 1642.24C1351.25 1639.33 1355.76 1636.75 1358.88 1634.81C1359.67 1634.32 1360.34 1633.88 1360.91 1633.5C1360.55 1632.87 1360.14 1632.14 1359.67 1631.31C1357.86 1628.13 1355.22 1623.5 1351.85 1617.61C1345.11 1605.84 1335.48 1589.08 1323.9 1568.95C1300.75 1528.7 1269.83 1475.02 1238.68 1421.01C1176.34 1312.94 1113.22 1203.72 1109.68 1198L1109.64 1197.95L1109.61 1197.89L1108.71 1196.34L1099.34 1201.08L1099.34 1201.08L1099.33 1201.09C1083.44 1209.03 1063.77 1215.72 1043.42 1220.18L1043.42 1220.18L1043.41 1220.18C1030.69 1222.91 1023.04 1223.5 1000.5 1223.5C977.965 1223.5 970.31 1222.91 957.592 1220.18L957.584 1220.18L957.575 1220.18C937.228 1215.72 917.557 1209.03 901.673 1201.09L901.665 1201.08L901.657 1201.08L892.285 1196.34L891.39 1197.89Z" fill="url(#paint9_linear_5_42)"/>
<path d="M891.39 1197.89L891.358 1197.95L891.323 1198C887.777 1203.72 824.657 1312.94 762.322 1421.01C731.174 1475.02 700.246 1528.7 677.096 1568.95C665.521 1589.08 655.891 1605.84 649.151 1617.61C645.781 1623.5 643.136 1628.13 641.331 1631.31C640.859 1632.14 640.446 1632.87 640.094 1633.5C640.657 1633.88 641.334 1634.32 642.123 1634.81C645.236 1636.75 649.752 1639.33 655.146 1642.24C665.919 1648.06 679.985 1655.13 692.874 1661.03L692.88 1661.04C890.733 1752.02 1110.27 1752.02 1308.12 1661.04L1308.13 1661.03C1321.01 1655.13 1335.08 1648.06 1345.85 1642.24C1351.25 1639.33 1355.76 1636.75 1358.88 1634.81C1359.67 1634.32 1360.34 1633.88 1360.91 1633.5C1360.55 1632.87 1360.14 1632.14 1359.67 1631.31C1357.86 1628.13 1355.22 1623.5 1351.85 1617.61C1345.11 1605.84 1335.48 1589.08 1323.9 1568.95C1300.75 1528.7 1269.83 1475.02 1238.68 1421.01C1176.34 1312.94 1113.22 1203.72 1109.68 1198L1109.64 1197.95L1109.61 1197.89L1108.71 1196.34L1099.34 1201.08L1099.34 1201.08L1099.33 1201.09C1083.44 1209.03 1063.77 1215.72 1043.42 1220.18L1043.42 1220.18L1043.41 1220.18C1030.69 1222.91 1023.04 1223.5 1000.5 1223.5C977.965 1223.5 970.31 1222.91 957.592 1220.18L957.584 1220.18L957.575 1220.18C937.228 1215.72 917.557 1209.03 901.673 1201.09L901.665 1201.08L901.657 1201.08L892.285 1196.34L891.39 1197.89Z" stroke="url(#paint10_linear_5_42)" stroke-width="8" stroke-miterlimit="2.61313" style="mix-blend-mode:luminosity"/>
</g>
<defs>
<filter id="filter0_i_5_42" x="0" y="0" width="2100" height="2100" filterUnits="userSpaceOnUse" color-interpolation-filters="sRGB">
<feFlood flood-opacity="0" result="BackgroundImageFix"/>
<feBlend mode="normal" in="SourceGraphic" in2="BackgroundImageFix" result="shape"/>
<feColorMatrix in="SourceAlpha" type="matrix" values="0 0 0 0 0 0 0 0 0 0 0 0 0 0 0 0 0 0 127 0" result="hardAlpha"/>
<feMorphology radius="100" operator="erode" in="SourceAlpha" result="effect1_innerShadow_5_42"/>
<feOffset dx="100" dy="100"/>
<feGaussianBlur stdDeviation="2"/>
<feComposite in2="hardAlpha" operator="arithmetic" k2="-1" k3="1"/>
<feColorMatrix type="matrix" values="0 0 0 0 0 0 0 0 0 0 0 0 0 0 0 0 0 0 0.25 0"/>
<feBlend mode="normal" in2="shape" result="effect1_innerShadow_5_42"/>
</filter>
<filter id="filter1_d_5_42" x="267.583" y="365.648" width="1505.83" height="1407.62" filterUnits="userSpaceOnUse" color-interpolation-filters="sRGB">
<feFlood flood-opacity="0" result="BackgroundImageFix"/>
<feColorMatrix in="SourceAlpha" type="matrix" values="0 0 0 0 0 0 0 0 0 0 0 0 0 0 0 0 0 0 127 0" result="hardAlpha"/>
<feOffset dx="30" dy="30"/>
<feGaussianBlur stdDeviation="5"/>
<feComposite in2="hardAlpha" operator="out"/>
<feColorMatrix type="matrix" values="0 0 0 0 0 0 0 0 0 0 0 0 0 0 0 0 0 0 0.1 0"/>
<feBlend mode="normal" in2="BackgroundImageFix" result="effect1_dropShadow_5_42"/>
<feBlend mode="normal" in="SourceGraphic" in2="effect1_dropShadow_5_42" result="shape"/>
</filter>
<linearGradient id="paint0_linear_5_42" x1="497.5" y1="130" x2="1528.5" y2="1844" gradientUnits="userSpaceOnUse">
<stop stop-color="#FFD700"/>
<stop offset="1" stop-color="#A38A00"/>
</linearGradient>
<linearGradient id="paint1_linear_5_42" x1="1493" y1="1828.5" x2="454" y2="165.5" gradientUnits="userSpaceOnUse">
<stop stop-color="#FFDE2E"/>
<stop offset="1" stop-color="#FFE55C"/>
</linearGradient>
<linearGradient id="paint2_linear_5_42" x1="547.611" y1="278.917" x2="1468.92" y2="1677.64" gradientUnits="userSpaceOnUse">
<stop stop-color="#A38A00"/>
<stop offset="1" stop-color="#FFED8A"/>
</linearGradient>
<linearGradient id="paint3_linear_5_42" x1="439.076" y1="373.093" x2="798.052" y2="920.242" gradientUnits="userSpaceOnUse">
<stop stop-color="#FFE55C"/>
<stop offset="1" stop-color="#FFD700"/>
</linearGradient>
<linearGradient id="paint4_linear_5_42" x1="579.146" y1="366.907" x2="579.146" y2="1000.5" gradientUnits="userSpaceOnUse">
<stop stop-color="#FFE55C"/>
<stop offset="1" stop-color="#A38A00"/>
</linearGradient>
<linearGradient id="paint5_linear_5_42" x1="1282.59" y1="371.846" x2="1642.81" y2="918.838" gradientUnits="userSpaceOnUse">
<stop stop-color="#FFE55C"/>
<stop offset="1" stop-color="#FFD700"/>
</linearGradient>
<linearGradient id="paint6_linear_5_42" x1="1422.41" y1="365.648" x2="1422.41" y2="1000.5" gradientUnits="userSpaceOnUse">
<stop stop-color="#FFE55C"/>
<stop offset="1" stop-color="#A38A00"/>
</linearGradient>
<linearGradient id="paint7_linear_5_42" x1="934.634" y1="856.987" x2="1099.42" y2="1112.46" gradientUnits="userSpaceOnUse">
<stop stop-color="#FFE55C"/>
<stop offset="1" stop-color="#FFD700"/>
</linearGradient>
<linearGradient id="paint8_linear_5_42" x1="1000.49" y1="854.128" x2="1000.49" y2="1146.98" gradientUnits="userSpaceOnUse">
<stop stop-color="#FFE55C"/>
<stop offset="1" stop-color="#A38A00"/>
</linearGradient>
<linearGradient id="paint9_linear_5_42" x1="836.209" y1="1196.35" x2="1097.06" y2="1741.27" gradientUnits="userSpaceOnUse">
<stop stop-color="#FFE55C"/>
<stop offset="1" stop-color="#FFD700"/>
</linearGradient>
<linearGradient id="paint10_linear_5_42" x1="1000.5" y1="1191.06" x2="1000.5" y2="1733.27" gradientUnits="userSpaceOnUse">
<stop stop-color="#FFE55C"/>
<stop offset="1" stop-color="#A38A00"/>
</linearGradient>
</defs>
</svg>
