<svg width="2000" height="2000" viewBox="0 0 2000 2000" fill="none" xmlns="http://www.w3.org/2000/svg">
<g filter="url(#filter0_i_5_42)">
<circle cx="1000" cy="1000" r="1000" fill="url(#paint0_linear_5_42)"/>
</g>
<circle cx="1000" cy="1000" r="925" stroke="url(#paint1_linear_5_42)" stroke-width="150"/>
<circle cx="1000" cy="1000" r="842.5" stroke="url(#paint2_linear_5_42)" stroke-width="15"/>
<g filter="url(#filter1_d_5_42)">
<path d="M636.736 406.422L636.727 406.428L636.717 406.434C588.941 436.242 553.05 464.482 513.639 503.058C411.595 603.014 345.624 724.792 317.362 865.408L317.361 865.411C310.265 900.612 304 958.865 304 989.78V996H544.86H785.856L786.57 986.004C786.57 986.002 786.57 986 786.57 985.998C791.137 919.953 826.643 858.625 881.159 822.233L881.174 822.223L881.189 822.214L889.672 816.659L888.948 815.5L888.893 815.413L888.843 815.323C887.466 812.843 832.619 717.981 766.937 604.403L766.935 604.399C734.176 547.63 704.287 495.902 682.518 458.297C671.634 439.494 662.78 424.223 656.613 413.62C653.53 408.317 651.12 404.185 649.465 401.363C649.105 400.751 648.782 400.201 648.496 399.716C648.065 399.923 647.584 400.163 647.055 400.436C644.328 401.841 640.65 403.95 636.736 406.422Z" fill="url(#paint3_linear_5_42)"/>
<path d="M636.736 406.422L636.727 406.428L636.717 406.434C588.941 436.242 553.05 464.482 513.639 503.058C411.595 603.014 345.624 724.792 317.362 865.408L317.361 865.411C310.265 900.612 304 958.865 304 989.78V996H544.86H785.856L786.57 986.004C786.57 986.002 786.57 986 786.57 985.998C791.137 919.953 826.643 858.625 881.159 822.233L881.174 822.223L881.189 822.214L889.672 816.659L888.948 815.5L888.893 815.413L888.843 815.323C887.466 812.843 832.619 717.981 766.937 604.403L766.935 604.399C734.176 547.63 704.287 495.902 682.518 458.297C671.634 439.494 662.78 424.223 656.613 413.62C653.53 408.317 651.12 404.185 649.465 401.363C649.105 400.751 648.782 400.201 648.496 399.716C648.065 399.923 647.584 400.163 647.055 400.436C644.328 401.841 640.65 403.95 636.736 406.422Z" stroke="url(#paint4_linear_5_42)" stroke-width="8" stroke-miterlimit="2.61313" style="mix-blend-mode:luminosity"/>
<path d="M1351.66 399.19L1353.23 400.153L1353.24 400.156C1365.36 407.539 1389.77 423.444 1398.78 429.821C1560.71 544.828 1663.98 714.924 1689.73 909.246C1693.22 935.6 1696 971.533 1696 989.78V996H1455.14H1214.14L1213.43 986.004C1213.43 986.003 1213.43 986.002 1213.43 986.001C1208.86 919.954 1173.36 858.623 1118.7 822.231L1118.69 822.226C1115.87 820.361 1113.81 818.983 1112.29 817.902C1111.46 817.309 1110.87 816.856 1110.45 816.51C1112.61 812.883 1125.51 790.581 1144.88 757.036C1150.82 746.75 1157.38 735.387 1164.45 723.148C1182.18 692.448 1203.09 656.238 1225.36 617.702L1225.37 617.698C1287.51 509.924 1341.8 415.9 1346.02 408.716L1346.03 408.708M1351.66 399.19L1346.03 408.708M1351.66 399.19L1346.03 408.708M1351.66 399.19L1346.03 408.708" fill="url(#paint5_linear_5_42)"/>
<path d="M1351.66 399.19L1353.23 400.153L1353.24 400.156C1365.36 407.539 1389.77 423.444 1398.78 429.821C1560.71 544.828 1663.98 714.924 1689.73 909.246C1693.22 935.6 1696 971.533 1696 989.78V996H1455.14H1214.14L1213.43 986.004C1213.43 986.003 1213.43 986.002 1213.43 986.001C1208.86 919.954 1173.36 858.623 1118.7 822.231L1118.69 822.226C1115.87 820.361 1113.81 818.983 1112.29 817.902C1111.46 817.309 1110.87 816.856 1110.45 816.51C1112.61 812.883 1125.51 790.581 1144.88 757.036C1150.82 746.75 1157.38 735.387 1164.45 723.148C1182.18 692.448 1203.09 656.238 1225.36 617.702L1225.37 617.698C1287.51 509.924 1341.8 415.9 1346.02 408.716L1346.03 408.708M1351.66 399.19L1346.03 408.708M1351.66 399.19L1346.03 408.708M1351.66 399.19L1346.03 408.708" stroke="url(#paint6_linear_5_42)" stroke-width="8" stroke-miterlimit="2.61313" style="mix-blend-mode:luminosity"/>
<path d="M976.909 866.037C903.417 879.378 853.41 949.877 866.04 1022.27C876.109 1079.55 920.449 1123.89 977.728 1133.96C1050.54 1146.59 1121.03 1096.31 1133.96 1022.27C1145.23 957.49 1106.1 892.573 1042.54 870.928C1022.87 864.285 997.24 862.377 976.909 866.037Z" fill="url(#paint7_linear_5_42)"/>
<path d="M976.909 866.037C903.417 879.378 853.41 949.877 866.04 1022.27C876.109 1079.55 920.449 1123.89 977.728 1133.96C1050.54 1146.59 1121.03 1096.31 1133.96 1022.27C1145.23 957.49 1106.1 892.573 1042.54 870.928C1022.87 864.285 997.24 862.377 976.909 866.037Z" stroke="url(#paint8_linear_5_42)" stroke-width="8" stroke-miterlimit="2.61313" style="mix-blend-mode:luminosity"/>
<path d="M895.947 1188.62L895.914 1188.67L895.879 1188.73C892.494 1194.19 832.212 1298.49 772.675 1401.72C742.925 1453.3 713.386 1504.57 691.276 1543.01C680.221 1562.23 671.024 1578.24 664.587 1589.49C661.368 1595.11 658.842 1599.53 657.118 1602.57C656.704 1603.3 656.337 1603.95 656.018 1604.51C656.526 1604.85 657.124 1605.24 657.814 1605.67C660.782 1607.52 665.092 1609.98 670.242 1612.76C680.528 1618.32 693.958 1625.07 706.265 1630.7L706.271 1630.71C895.191 1717.58 1104.81 1717.58 1293.73 1630.71L1293.74 1630.7C1306.04 1625.07 1319.47 1618.32 1329.76 1612.76C1334.91 1609.98 1339.22 1607.52 1342.19 1605.67C1342.88 1605.24 1343.47 1604.85 1343.98 1604.51C1343.66 1603.95 1343.3 1603.3 1342.88 1602.57C1341.16 1599.53 1338.63 1595.11 1335.41 1589.49C1328.98 1578.24 1319.78 1562.23 1308.72 1543.01C1286.61 1504.57 1257.07 1453.3 1227.33 1401.72C1167.79 1298.49 1107.51 1194.19 1104.12 1188.73L1104.09 1188.67L1104.05 1188.62L1103.28 1187.28L1094.49 1191.73L1094.48 1191.73L1094.47 1191.74C1079.28 1199.33 1060.48 1205.73 1041.04 1209.99L1041.03 1209.99L1041.02 1209.99C1028.85 1212.6 1021.53 1213.16 1000 1213.16C978.472 1213.16 971.147 1212.6 958.982 1209.99L958.973 1209.99L958.964 1209.99C939.52 1205.73 920.717 1199.33 905.531 1191.74L905.523 1191.73L905.515 1191.73L896.716 1187.28L895.947 1188.62Z" fill="url(#paint9_linear_5_42)"/>
<path d="M895.947 1188.62L895.914 1188.67L895.879 1188.73C892.494 1194.19 832.212 1298.49 772.675 1401.72C742.925 1453.3 713.386 1504.57 691.276 1543.01C680.221 1562.23 671.024 1578.24 664.587 1589.49C661.368 1595.11 658.842 1599.53 657.118 1602.57C656.704 1603.3 656.337 1603.95 656.018 1604.51C656.526 1604.85 657.124 1605.24 657.814 1605.67C660.782 1607.52 665.092 1609.98 670.242 1612.76C680.528 1618.32 693.958 1625.07 706.265 1630.7L706.271 1630.71C895.191 1717.58 1104.81 1717.58 1293.73 1630.71L1293.74 1630.7C1306.04 1625.07 1319.47 1618.32 1329.76 1612.76C1334.91 1609.98 1339.22 1607.52 1342.19 1605.67C1342.88 1605.24 1343.47 1604.85 1343.98 1604.51C1343.66 1603.95 1343.3 1603.3 1342.88 1602.57C1341.16 1599.53 1338.63 1595.11 1335.41 1589.49C1328.98 1578.24 1319.78 1562.23 1308.72 1543.01C1286.61 1504.57 1257.07 1453.3 1227.33 1401.72C1167.79 1298.49 1107.51 1194.19 1104.12 1188.73L1104.09 1188.67L1104.05 1188.62L1103.28 1187.28L1094.49 1191.73L1094.48 1191.73L1094.47 1191.74C1079.28 1199.33 1060.48 1205.73 1041.04 1209.99L1041.03 1209.99L1041.02 1209.99C1028.85 1212.6 1021.53 1213.16 1000 1213.16C978.472 1213.16 971.147 1212.6 958.982 1209.99L958.973 1209.99L958.964 1209.99C939.52 1205.73 920.717 1199.33 905.531 1191.74L905.523 1191.73L905.515 1191.73L896.716 1187.28L895.947 1188.62Z" stroke="url(#paint10_linear_5_42)" stroke-width="8" stroke-miterlimit="2.61313" style="mix-blend-mode:luminosity"/>
</g>
<defs>
<filter id="filter0_i_5_42" x="0" y="0" width="2100" height="2100" filterUnits="userSpaceOnUse" color-interpolation-filters="sRGB">
<feFlood flood-opacity="0" result="BackgroundImageFix"/>
<feBlend mode="normal" in="SourceGraphic" in2="BackgroundImageFix" result="shape"/>
<feColorMatrix in="SourceAlpha" type="matrix" values="0 0 0 0 0 0 0 0 0 0 0 0 0 0 0 0 0 0 127 0" result="hardAlpha"/>
<feMorphology radius="100" operator="erode" in="SourceAlpha" result="effect1_innerShadow_5_42"/>
<feOffset dx="100" dy="100"/>
<feGaussianBlur stdDeviation="2"/>
<feComposite in2="hardAlpha" operator="arithmetic" k2="-1" k3="1"/>
<feColorMatrix type="matrix" values="0 0 0 0 0 0 0 0 0 0 0 0 0 0 0 0 0 0 0.25 0"/>
<feBlend mode="normal" in2="shape" result="effect1_innerShadow_5_42"/>
</filter>
<filter id="filter1_d_5_42" x="300" y="393.66" width="1440" height="1346.2" filterUnits="userSpaceOnUse" color-interpolation-filters="sRGB">
<feFlood flood-opacity="0" result="BackgroundImageFix"/>
<feColorMatrix in="SourceAlpha" type="matrix" values="0 0 0 0 0 0 0 0 0 0 0 0 0 0 0 0 0 0 127 0" result="hardAlpha"/>
<feOffset dx="30" dy="30"/>
<feGaussianBlur stdDeviation="5"/>
<feComposite in2="hardAlpha" operator="out"/>
<feColorMatrix type="matrix" values="0 0 0 0 0 0 0 0 0 0 0 0 0 0 0 0 0 0 0.1 0"/>
<feBlend mode="normal" in2="BackgroundImageFix" result="effect1_dropShadow_5_42"/>
<feBlend mode="normal" in="SourceGraphic" in2="effect1_dropShadow_5_42" result="shape"/>
</filter>
<linearGradient id="paint0_linear_5_42" x1="497.5" y1="130" x2="1528.5" y2="1844" gradientUnits="userSpaceOnUse">
<stop stop-color="#FFD700"/>
<stop offset="1" stop-color="#A38A00"/>
</linearGradient>
<linearGradient id="paint1_linear_5_42" x1="1493" y1="1828.5" x2="454" y2="165.5" gradientUnits="userSpaceOnUse">
<stop stop-color="#FFDE2E"/>
<stop offset="1" stop-color="#FFE55C"/>
</linearGradient>
<linearGradient id="paint2_linear_5_42" x1="547.611" y1="278.917" x2="1468.92" y2="1677.64" gradientUnits="userSpaceOnUse">
<stop stop-color="#A38A00"/>
<stop offset="1" stop-color="#FFED8A"/>
</linearGradient>
<linearGradient id="paint3_linear_5_42" x1="463.79" y1="400.771" x2="806.645" y2="923.346" gradientUnits="userSpaceOnUse">
<stop stop-color="#FFE55C"/>
<stop offset="1" stop-color="#FFD700"/>
</linearGradient>
<linearGradient id="paint4_linear_5_42" x1="597.57" y1="394.863" x2="597.57" y2="1000" gradientUnits="userSpaceOnUse">
<stop stop-color="#FFE55C"/>
<stop offset="1" stop-color="#A38A00"/>
</linearGradient>
<linearGradient id="paint5_linear_5_42" x1="1269.42" y1="399.58" x2="1613.47" y2="922.006" gradientUnits="userSpaceOnUse">
<stop stop-color="#FFE55C"/>
<stop offset="1" stop-color="#FFD700"/>
</linearGradient>
<linearGradient id="paint6_linear_5_42" x1="1402.96" y1="393.66" x2="1402.96" y2="1000" gradientUnits="userSpaceOnUse">
<stop stop-color="#FFE55C"/>
<stop offset="1" stop-color="#A38A00"/>
</linearGradient>
<linearGradient id="paint7_linear_5_42" x1="937.092" y1="862.933" x2="1094.47" y2="1106.93" gradientUnits="userSpaceOnUse">
<stop stop-color="#FFE55C"/>
<stop offset="1" stop-color="#FFD700"/>
</linearGradient>
<linearGradient id="paint8_linear_5_42" x1="999.988" y1="860.202" x2="999.988" y2="1139.9" gradientUnits="userSpaceOnUse">
<stop stop-color="#FFE55C"/>
<stop offset="1" stop-color="#A38A00"/>
</linearGradient>
<linearGradient id="paint9_linear_5_42" x1="843.088" y1="1187.06" x2="1092.22" y2="1707.5" gradientUnits="userSpaceOnUse">
<stop stop-color="#FFE55C"/>
<stop offset="1" stop-color="#FFD700"/>
</linearGradient>
<linearGradient id="paint10_linear_5_42" x1="1000" y1="1182" x2="1000" y2="1699.86" gradientUnits="userSpaceOnUse">
<stop stop-color="#FFE55C"/>
<stop offset="1" stop-color="#A38A00"/>
</linearGradient>
</defs>
</svg>
